<svg width="13" height="17" viewBox="0 0 13 17" fill="none" xmlns="http://www.w3.org/2000/svg">
<path d="M11.0031 7.2296V4.53742C11.0103 3.31927 10.5237 2.14798 9.65517 1.29383C8.81544 0.457706 7.71623 0 6.55214 0C6.53412 0 6.5125 0 6.49448 0C4.01133 0.00360399 1.9931 2.03625 1.9931 4.53742V7.2296C1.05606 7.34132 0.371307 8.12699 0.371307 9.07844V15.1259C0.371307 16.1531 1.19302 17 2.22015 17H10.7796C11.8068 17 12.6285 16.1531 12.6285 15.1259V9.07844C12.6249 8.13059 11.9401 7.34132 11.0031 7.2296ZM2.71029 4.53742H2.7139C2.7139 2.43269 4.41138 0.709985 6.49808 0.709985H6.50169C7.49278 0.706381 8.44423 1.09922 9.14701 1.79839C9.87862 2.52279 10.2859 3.51028 10.2787 4.53742V7.2332H9.48579V4.53742C9.493 3.71931 9.16864 2.93364 8.58839 2.35701C8.04059 1.8092 7.29817 1.49926 6.52331 1.49926H6.50169C4.84385 1.49926 3.50317 2.86156 3.50317 4.53381V7.2332H2.71029V4.53742ZM8.76859 4.53742V7.2332H4.22757V4.53742C4.22757 3.26161 5.2439 2.22366 6.50529 2.22366H6.52691C7.11076 2.22366 7.67298 2.45792 8.08744 2.87238C8.52713 3.31206 8.7758 3.91393 8.76859 4.53742ZM11.9401 15.1367C11.9401 15.7674 11.4283 16.2792 10.7976 16.2792H2.23457C1.60387 16.2792 1.0921 15.7674 1.0921 15.1367V9.09646C1.0921 8.46576 1.60387 7.954 2.23457 7.954H10.7976C11.4283 7.954 11.9401 8.46576 11.9401 9.09646V15.1367Z" fill="#000842"/>
<path d="M7.74506 11.8932C7.58649 11.3346 7.07833 10.9525 6.49808 10.9525C5.78089 10.9525 5.19704 11.5328 5.19704 12.2536C5.19704 12.8338 5.57907 13.342 6.13769 13.5005V14.5097C6.13769 14.7079 6.29986 14.8701 6.49808 14.8701C6.6963 14.8701 6.85848 14.7079 6.85848 14.5097V13.5005C7.54684 13.3023 7.94689 12.5815 7.74506 11.8932ZM6.49808 12.8302C6.17733 12.8302 5.91784 12.5707 5.91784 12.25C5.91784 11.9292 6.17733 11.6697 6.49808 11.6697C6.81884 11.6697 7.07833 11.9292 7.07833 12.25C7.07833 12.5707 6.81884 12.8302 6.49808 12.8302Z" fill="#000842"/>
</svg>
