<svg width="17" height="13" viewBox="0 0 17 13" fill="none" xmlns="http://www.w3.org/2000/svg">
<path d="M1.49402 0.676514H15.5057C16.3296 0.676514 16.9999 1.34679 16.9999 2.17065V10.8294C16.9999 11.6533 16.3296 12.3236 15.5057 12.3236H1.49402C0.670149 12.3236 -0.00012207 11.6533 -0.00012207 10.8294V2.17065C-0.00012207 1.34679 0.670149 0.676514 1.49402 0.676514ZM1.68902 1.67261L7.90707 6.85037C8.25059 7.13638 8.74923 7.13638 9.09269 6.85037L15.3107 1.67261H1.68902ZM16.0038 2.39172L11.0999 6.47514L16.0038 9.73878V2.39172ZM1.49402 11.3275H15.5057C15.7464 11.3275 15.9477 11.1559 15.9938 10.9287L10.3013 7.14017L9.73005 7.61583C9.37365 7.9126 8.93673 8.06099 8.49984 8.06099C8.06296 8.06099 7.62607 7.9126 7.26964 7.61583L6.69841 7.14017L1.00593 10.9286C1.05208 11.1559 1.25336 11.3275 1.49402 11.3275ZM0.995972 9.73878L5.89981 6.47517L0.995972 2.39172V9.73878Z" fill="#000842"/>
</svg>
