<svg width="14" height="14" viewBox="0 0 14 14" fill="none" xmlns="http://www.w3.org/2000/svg">
<g clip-path="url(#clip0_2004_60)">
<path d="M6.89331 4.78249L8.8974 6.78658L8.90694 6.68161C8.90694 5.62865 8.05124 4.77295 6.99829 4.77295L6.89331 4.78249Z" fill="#ABABAB"/>
<path d="M6.99831 3.50069C8.75427 3.50069 10.1794 4.92583 10.1794 6.6818C10.1794 7.09216 10.0967 7.48343 9.95357 7.84289L11.8145 9.70383C12.7752 8.90219 13.5323 7.86517 13.9999 6.6818C12.8961 3.88881 10.1826 1.91016 6.99834 1.91016C6.10762 1.91016 5.25511 2.0692 4.46301 2.3555L5.83725 3.72654C6.19667 3.58658 6.58795 3.50069 6.99831 3.50069Z" fill="#ABABAB"/>
<path d="M0.636087 1.76699L2.08667 3.21757L2.37616 3.50706C1.32639 4.32778 0.496129 5.41891 -0.00012207 6.68178C1.10055 9.47477 3.81719 11.4534 6.9983 11.4534C7.98445 11.4534 8.92604 11.2626 9.78813 10.9158L10.0585 11.1862L11.9131 13.044L12.7243 12.236L1.44727 0.955811L0.636087 1.76699ZM4.1544 5.28211L5.13736 6.26507C5.10873 6.40187 5.08964 6.53863 5.08964 6.68178C5.08964 7.73473 5.94534 8.59044 6.9983 8.59044C7.14145 8.59044 7.27824 8.57135 7.41185 8.54272L8.39481 9.52568C7.97171 9.73563 7.50093 9.86289 6.9983 9.86289C5.24233 9.86289 3.81719 8.43775 3.81719 6.68178C3.81719 6.17918 3.94445 5.70837 4.1544 5.28211Z" fill="#ABABAB"/>
</g>
<defs>
<clipPath id="clip0_2004_60">
<rect width="14" height="14" fill="white"/>
</clipPath>
</defs>
</svg>
